<?xml version="1.0" encoding="UTF-8" standalone="no"?><svg xmlns="http://www.w3.org/2000/svg" xmlns:xlink="http://www.w3.org/1999/xlink" contentScriptType="application/ecmascript" contentStyleType="text/css" height="188px" preserveAspectRatio="none" style="width:106px;height:188px;" version="1.1" viewBox="0 0 106 188" width="106px" zoomAndPan="magnify"><defs><filter height="300%" id="f1stxfa8ayxdmf" width="300%" x="-1" y="-1"><feGaussianBlur result="blurOut" stdDeviation="2.0"/><feColorMatrix in="blurOut" result="blurOut2" type="matrix" values="0 0 0 0 0 0 0 0 0 0 0 0 0 0 0 0 0 0 .4 0"/><feOffset dx="4.0" dy="4.0" in="blurOut2" result="blurOut3"/><feBlend in="SourceGraphic" in2="blurOut3" mode="normal"/></filter></defs><g><!--MD5=[f77682fd75c3e1fc6a82f566c0814d0f]
class _0--><rect fill="#FEFECE" filter="url(#f1stxfa8ayxdmf)" height="60.8047" id="_0" style="stroke: #A80036; stroke-width: 1.5;" width="89" x="6" y="8"/><ellipse cx="33.6" cy="24" fill="#DA70D6" rx="11" ry="11" style="stroke: #A80036; stroke-width: 1.0;"/><path d="M30.8656,27.2969 L30.8656,20.7813 C30.1938,20.7813 29.8188,20.4844 29.8188,19.9375 C29.8188,19.6563 29.975,19.3594 30.225,19.2031 C30.3813,19.1094 30.5063,19.0938 30.9594,19.0938 L34.5688,19.0938 C37.0531,19.0938 38.9438,21.1406 38.9438,23.8125 L38.9438,24.6094 C38.9438,25.8594 38.5375,26.9063 37.7563,27.7188 C36.9281,28.6094 35.9125,29 34.4281,29 L30.9594,29 C30.5531,29 30.3344,28.9531 30.1781,28.8281 C29.9594,28.6719 29.8188,28.4063 29.8188,28.1563 C29.8188,27.6094 30.2094,27.2969 30.8656,27.2969 Z M32.5531,27.2969 L34.4438,27.2969 C35.4594,27.2969 36.0219,27.0938 36.5531,26.5469 C37.0219,26.0313 37.2563,25.4375 37.2563,24.5625 L37.2563,23.7813 C37.2563,22.9844 36.975,22.2344 36.4906,21.6563 C35.975,21.0625 35.3344,20.7813 34.4281,20.7813 L32.5531,20.7813 Z "/><text fill="#000000" font-family="sans-serif" font-size="12" lengthAdjust="spacingAndGlyphs" textLength="29" x="50.4" y="28.1543">User</text><line style="stroke: #A80036; stroke-width: 1.5;" x1="7" x2="94" y1="40" y2="40"/><ellipse cx="17" cy="51" fill="none" rx="3" ry="3" style="stroke: #038048; stroke-width: 1.0;"/><text fill="#000000" font-family="sans-serif" font-size="11" lengthAdjust="spacingAndGlyphs" textLength="18" x="26" y="54.2104">id :</text><text fill="#000000" font-family="sans-serif" font-size="11" font-weight="bold" lengthAdjust="spacingAndGlyphs" textLength="41" x="48" y="54.2104">Server</text><line style="stroke: #A80036; stroke-width: 1.5;" x1="7" x2="94" y1="60.8047" y2="60.8047"/><!--MD5=[37d6e5304215b5e345f427169db70937]
class _1--><rect fill="#FEFECE" filter="url(#f1stxfa8ayxdmf)" height="48" id="_1" style="stroke: #A80036; stroke-width: 1.5;" width="46" x="27.5" y="129"/><ellipse cx="42.5" cy="145" fill="#ADD1B2" rx="11" ry="11" style="stroke: #A80036; stroke-width: 1.0;"/><path d="M44.8438,140.6719 L45.0156,140.75 C45.2344,140.4375 45.4375,140.3438 45.7344,140.3438 C46.0313,140.3438 46.3125,140.4844 46.4688,140.75 C46.5625,140.9063 46.5781,141.0313 46.5781,141.4688 L46.5781,142.8906 C46.5781,143.3125 46.5469,143.5 46.4375,143.6563 C46.2656,143.875 46,144.0156 45.7344,144.0156 C45.5156,144.0156 45.2813,143.9063 45.1406,143.7656 C45,143.6406 44.9688,143.5156 44.9063,143.1094 C44.8125,142.7031 44.6406,142.4844 44.1563,142.2031 C43.6875,141.9531 43.0781,141.7969 42.5,141.7969 C40.7656,141.7969 39.5156,143.1094 39.5156,144.8906 L39.5156,145.9844 C39.5156,147.6875 40.8125,148.7813 42.8594,148.7813 C43.625,148.7813 44.3125,148.6563 44.7344,148.3906 C44.9219,148.2969 44.9219,148.2969 45.375,147.8125 C45.5625,147.625 45.7656,147.5469 45.9844,147.5469 C46.4531,147.5469 46.8438,147.9375 46.8438,148.3906 C46.8438,148.7813 46.5156,149.2344 45.9375,149.6406 C45.1875,150.1875 44.0313,150.4844 42.8125,150.4844 C39.9219,150.4844 37.8125,148.5938 37.8125,146.0156 L37.8125,144.8906 C37.8125,142.1719 39.8125,140.0938 42.4375,140.0938 C43.3125,140.0938 43.9063,140.2344 44.8438,140.6719 Z "/><text fill="#000000" font-family="sans-serif" font-size="12" lengthAdjust="spacingAndGlyphs" textLength="14" x="56.5" y="149.1543">_1</text><line style="stroke: #A80036; stroke-width: 1.5;" x1="28.5" x2="72.5" y1="161" y2="161"/><line style="stroke: #A80036; stroke-width: 1.5;" x1="28.5" x2="72.5" y1="169" y2="169"/><!--MD5=[bde1413f829cc278731640fabc810278]
reverse link _0 to _1--><path d="M50.5,82.3617 C50.5,98.0865 50.5,115.2932 50.5,128.6686 " fill="none" id="_0&lt;-_1" style="stroke: #A80036; stroke-width: 1.0;"/><polygon fill="#A80036" points="50.5,69.058,46.5,75.058,50.5,81.058,54.5,75.058,50.5,69.058" style="stroke: #A80036; stroke-width: 1.0;"/><text fill="#000000" font-family="sans-serif" font-size="13" lengthAdjust="spacingAndGlyphs" textLength="24" x="19.0875" y="117.9928">1..1</text><!--MD5=[cda1f931a57853a578a78e60c4e9cdb9]
@startuml

class "User" as _0 << (D,orchid) >> {
+ id : **Server**
}
_0 *- - "1..1 " _1
@enduml

PlantUML version 1.2019.13(Tue Dec 10 17:18:29 UTC 2019)
(GPL source distribution)
Java Runtime: Java(TM) SE Runtime Environment
JVM: Java HotSpot(TM) 64-Bit Server VM
Java Version: 1.7.0_25-b15
Operating System: Linux
Default Encoding: UTF-8
Language: en
Country: US
--></g></svg>